#!OML:ASF G:\JayActor3\Patient Classification 1\Patient 1\Session 2\male.ASF
:FULLY-SPECIFIED
:DEGREES
2419
root 48.6736 16.7202 -6.63386 2551.54 -84.3929 -1108.8
lowerback -1.96452 -0.431944 -2.21829
upperback 4.46747 -0.441849 -2.07541
thorax 5.73136 -0.298201 -0.945261
lowerneck -7.78146 -3.86665 -5.67119
upperneck -2.80169 -5.03487 15.211
head 1.03531 -2.41279 5.34659
rclavicle 2.5842e-015 -2.38542e-014
rhumerus -32.986 -4.20729 -89.9469
rradius 31.2578
rwrist -5.8987
rhand -21.744 3.71307
rfingers 7.12502
rthumb 4.65596 -26.2158
lclavicle 2.5842e-015 -2.38542e-014
lhumerus -17.6556 -4.80159 86.4511
lradius 27.9005
lwrist 8.28306
lhand -17.7189 18.8874
lfingers 7.12502
lthumb 8.54163 48.6946
rfemur -13.0899 -1.2111 25.0583
rtibia 33.8875
rfoot -27.0271 -13.7352
rtoes 19.9205
lfemur -10.3323 11.6557 -19.8151
ltibia 25.9284
lfoot -23.3507 22.2326
ltoes 10.0847
2420
root 48.6803 16.7218 -6.65362 2552.52 -84.5863 -1109.76
lowerback -2.00107 -0.459543 -2.15621
upperback 4.48125 -0.482263 -2.01459
thorax 5.7666 -0.316802 -0.920254
lowerneck -7.8085 -3.80886 -5.57264
upperneck -2.8582 -4.95767 15.117
head 1.00911 -2.37763 5.30482
rclavicle -6.16232e-015 -1.59028e-014
rhumerus -32.8576 -4.04358 -89.9547
rradius 31.31
rwrist -5.91459
rhand -21.7245 3.74506
rfingers 7.12502
rthumb 4.67479 -26.1834
lclavicle -6.16232e-015 -1.59028e-014
lhumerus -17.8321 -4.85386 86.6415
lradius 27.9786
lwrist 8.35365
lhand -17.757 18.8161
lfingers 7.12502
lthumb 8.50487 48.6248
rfemur -13.1296 -1.13208 25.1029
rtibia 33.8535
rfoot -26.892 -13.6584
rtoes 19.9362
lfemur -10.391 11.7046 -19.7731
ltibia 26.001
lfoot -23.3951 22.3672
ltoes 10.1025
2421
root 48.687 16.7231 -6.67377 2553.36 -84.7598 -1110.59
lowerback -2.03831 -0.487082 -2.10008
upperback 4.49646 -0.522308 -1.95658
thorax 5.80381 -0.335458 -0.894889
lowerneck -7.84675 -3.75772 -5.47097
upperneck -2.89565 -4.89154 15.0217
head 0.991478 -2.3468 5.26123
rclavicle -9.93923e-015 2.54444e-014
rhumerus -32.7375 -3.90288 -89.9558
rradius 31.371
rwrist -5.92129
rhand -21.697 3.76364
rfingers 7.12502
rthumb 4.70135 -26.1642
lclavicle -9.93923e-015 2.54444e-014
lhumerus -18.0038 -4.90364 86.8244
lradius 28.0544
lwrist 8.41494
lhand -17.7712 18.7527
lfingers 7.12502
lthumb 8.49112 48.5619
rfemur -13.1682 -1.09448 25.1401
rtibia 33.8188
rfoot -26.7557 -13.5616
rtoes 19.9414
lfemur -10.4525 11.7659 -19.7347
ltibia 26.0709
lfoot -23.417 22.4765
ltoes 10.1044
2422
root 48.6938 16.7244 -6.69438 2554.02 -84.9144 -1111.25
lowerback -2.07013 -0.517773 -2.05587
upperback 4.51318 -0.566357 -1.89798
thorax 5.83969 -0.35668 -0.862526
lowerneck -7.88012 -3.7073 -5.39303
upperneck -2.93167 -4.82526 14.9506
head 0.97505 -2.31565 5.22918
rclavicle -8.94531e-015 -1.74931e-014
rhumerus -32.6269 -3.76876 -89.9491
rradius 31.4408
rwrist -5.92633
rhand -21.6617 3.78425
rfingers 7.12502
rthumb 4.7354 -26.1428
lclavicle -8.94531e-015 -1.74931e-014
lhumerus -18.1663 -4.93422 87.0014
lradius 28.1217
lwrist 8.45795
lhand -17.7711 18.6795
lfingers 7.12502
lthumb 8.49123 48.4888
rfemur -13.2004 -1.09705 25.1687
rtibia 33.7802
rfoot -26.622 -13.4469
rtoes 19.9457
lfemur -10.5107 11.8293 -19.7015
ltibia 26.1338
lfoot -23.4201 22.5687
ltoes 10.0955
2423
root 48.7006 16.7256 -6.71543 2554.51 -85.0488 -1111.74
lowerback -2.0888 -0.550129 -2.0183
upperback 4.52943 -0.61291 -1.83983
thorax 5.86764 -0.379433 -0.826942
lowerneck -7.92691 -3.66376 -5.3099
upperneck -2.94387 -4.77054 14.8692
head 0.968544 -2.28882 5.19208
rclavicle -3.97569e-015 -1.35174e-014
rhumerus -32.5301 -3.64671 -89.937
rradius 31.5206
rwrist -5.92943
rhand -21.6252 3.79447
rfingers 7.12502
rthumb 4.77066 -26.1318
lclavicle -3.97569e-015 -1.35174e-014
lhumerus -18.3229 -4.95766 87.1712
lradius 28.1793
lwrist 8.48655
lhand -17.7557 18.6153
lfingers 7.12502
lthumb 8.50606 48.424
rfemur -13.2206 -1.13574 25.1939
rtibia 33.7343
rfoot -26.4969 -13.3171
rtoes 19.971
lfemur -10.562 11.8895 -19.6695
ltibia 26.1883
lfoot -23.4054 22.6491
ltoes 10.0749
2424
root 48.7072 16.7269 -6.73676 2554.86 -85.1675 -1112.09
lowerback -2.08932 -0.581319 -1.9857
upperback 4.54339 -0.658424 -1.78188
thorax 5.88285 -0.401869 -0.788432
lowerneck -7.99043 -3.62514 -5.22591
upperneck -2.93484 -4.72434 14.7843
head 0.971779 -2.26474 5.15293
rclavicle 8.74653e-015 -1.98785e-014
rhumerus -32.4474 -3.54212 -89.9167
rradius 31.6033
rwrist -5.92899
rhand -21.5856 3.81229
rfingers 7.12502
rthumb 4.80888 -26.1131
lclavicle 8.74653e-015 -1.98785e-014
lhumerus -18.4803 -4.98487 87.336
lradius 28.2357
lwrist 8.50604
lhand -17.7315 18.5587
lfingers 7.12502
lthumb 8.52945 48.3664
rfemur -13.226 -1.19959 25.2166
rtibia 33.6786
rfoot -26.3806 -13.1814
rtoes 20.0127
lfemur -10.6035 11.9479 -19.6383
ltibia 26.2334
lfoot -23.3747 22.7231
ltoes 10.0358
2425
root 48.7137 16.7283 -6.75824 2555.08 -85.2705 -1112.33
lowerback -2.07179 -0.612769 -1.95436
upperback 4.55136 -0.704978 -1.72261
thorax 5.88143 -0.424808 -0.747559
lowerneck -8.05263 -3.59076 -5.13662
upperneck -2.91401 -4.68502 14.6864
head 0.97842 -2.24368 5.1085
rclavicle 3.37934e-015 -1.43125e-014
rhumerus -32.3852 -3.44393 -89.8899
rradius 31.6852
rwrist -5.93125
rhand -21.5477 3.83246
rfingers 7.12502
rthumb 4.84553 -26.0921
lclavicle 3.37934e-015 -1.43125e-014
lhumerus -18.6453 -5.00778 87.4961
lradius 28.2848
lwrist 8.51802
lhand -17.702 18.5024
lfingers 7.12502
lthumb 8.55795 48.309
rfemur -13.2146 -1.27906 25.2402
rtibia 33.6127
rfoot -26.2737 -13.0509
rtoes 20.0649
lfemur -10.6327 11.9993 -19.6055
ltibia 26.2694
lfoot -23.3382 22.7945
ltoes 9.98895
